<?xml version="1.0" encoding="UTF-8"?><svg xmlns="http://www.w3.org/2000/svg" viewBox="0 0 173.49 196.63"><defs><style>.d{fill:#a658f4;}.e{fill:#471a9f;}</style></defs><g id="a"/><g id="b"><g id="c"><g><path class="e" d="M.1,98.19c0-13.49,.2-26.99-.09-40.48-.15-7.01,2.69-11.42,8.73-14.85C32.15,29.56,55.4,15.98,78.66,2.42c5.4-3.15,10.5-3.27,15.97-.09,23.42,13.64,46.88,27.22,70.42,40.67,5.79,3.31,8.49,7.72,8.44,14.55-.21,27.15-.2,54.31,0,81.46,.05,6.57-2.38,10.91-8.1,14.17-23.98,13.69-47.82,27.6-71.7,41.45-4.59,2.66-9.12,2.66-13.71,0-24.6-14.24-49.22-28.46-73.81-42.72C1.68,149.32,.05,145.22,.08,140.17c.07-13.99,.03-27.99,.02-41.98Zm48.19-.64c0,11.17,.24,22.34-.1,33.5-.19,6.23,1.59,10.53,7.63,13.02,3.35,1.38,6.33,3.65,9.45,5.56,3.14,1.92,6.16,1.89,9.38,0,9.9-5.8,19.89-11.43,29.81-17.2,2.71-1.58,5.33-3.72,3.52-7.19-1.95-3.75-5.21-2.76-8.18-1.06-7.22,4.13-14.7,7.89-21.54,12.59-5.84,4.02-10.74,4.42-16.46,.04-2.59-1.99-4.14-3.59-4.11-7.13,.18-21.16,.16-42.33,.02-63.5-.02-3.42,.98-5.41,4.05-7.09,8.76-4.78,17.35-9.85,25.93-14.94,4.21-2.49,5.3-7.24,1.99-8.67-1.89-.82-5-.36-6.93,.69-9.77,5.35-19.27,11.2-29,16.64-3.98,2.23-5.55,5.31-5.51,9.74,.11,11.67,.04,23.33,.04,35Zm68.22-27.38c-3.52-1.99-5.68-3.73-8.14-4.45-2.51-.74-5.73-1.43-7.9-.47-5.29,2.34-10.19,5.59-15.17,8.6-2.51,1.52-4.02,3.71-2.26,6.68,1.88,3.18,4.6,2.77,7.34,1.25,3.19-1.78,6.44-3.5,9.45-5.55,3.01-2.04,5.42-2.1,8.46,.23,3,2.31,6.52,4.01,9.98,5.62,3.98,1.86,6.8,.02,7.23-4.38,1.94-20.03,.67-22.41-16.77-31.55-.15-.08-.3-.21-.45-.21-2.98,.01-6.52-.99-8.86,.25-10.13,5.35-20.01,11.21-29.75,17.26-1.97,1.23-3.95,3.97-4.17,6.19-.59,5.94-.35,11.97-.2,17.96,.08,3.04,1.89,5.53,4.99,4.71,1.76-.47,3.87-3.05,4.16-4.93,.64-4.06-.12-8.33,.35-12.44,.22-1.93,1.49-4.42,3.07-5.4,7.75-4.83,15.75-9.25,23.69-13.78,.82-.47,2.07-1.23,2.63-.93,3.81,2.01,7.93,3.79,11.02,6.65,1.45,1.34,.83,4.93,1.29,8.69Zm9,57.35c0-1.83-.2-3.69,.04-5.49,.74-5.65-1.83-9.06-6.82-11.37-3.61-1.67-6.82-4.2-10.45-5.78-2.09-.91-5.1-1.64-6.94-.79-5.71,2.63-11.25,5.79-16.43,9.36-1.39,.96-1.26,4.13-1.83,6.28,2.16,.53,4.53,1.88,6.43,1.4,2.8-.71,5.56-2.38,7.81-4.26,4.81-4.02,8.88-2.9,13.71,.21,3.56,2.29,5.19,4.37,5.3,8.87,.14,5.96-1.09,10.1-7.01,12.43-3.21,1.27-6.09,3.38-9.11,5.13-4.89,2.83-9.99,5.37-14.53,8.68-1.65,1.2-3.13,4.62-2.59,6.4,1,3.3,4.14,3.26,7.03,1.63,.87-.49,1.77-.91,2.63-1.41,7.32-4.26,14.41-9.01,22.02-12.66,8.16-3.91,13.24-8.88,10.74-18.61Zm-60.27-9.72c0,2.99-.63,6.17,.21,8.91,.62,2.03,3.14,3.49,4.81,5.2,1.46-1.72,3.78-3.27,4.19-5.21,.7-3.34,.59-6.99,.11-10.41-.64-4.58,1.46-6.86,5.17-8.9,8.43-4.61,16.68-9.55,24.99-14.38,2.78-1.62,5.17-3.76,3.14-7.18-2.15-3.62-5.3-2.43-8.21-.76-7.76,4.47-15.28,9.44-23.32,13.31-8.49,4.09-13.64,9.37-11.1,19.42Z"/><path class="d" d="M48.29,97.54c0-11.67,.07-23.33-.04-35-.04-4.43,1.53-7.51,5.51-9.74,9.73-5.44,19.23-11.29,29-16.64,1.92-1.05,5.03-1.51,6.93-.69,3.31,1.43,2.22,6.18-1.99,8.67-8.58,5.09-17.18,10.16-25.93,14.94-3.07,1.68-4.07,3.67-4.05,7.09,.15,21.16,.17,42.33-.02,63.5-.03,3.53,1.51,5.14,4.11,7.13,5.72,4.39,10.62,3.98,16.46-.04,6.83-4.7,14.31-8.46,21.54-12.59,2.98-1.7,6.23-2.69,8.18,1.06,1.8,3.46-.81,5.61-3.52,7.19-9.92,5.77-19.91,11.41-29.81,17.2-3.22,1.89-6.24,1.92-9.38,0-3.12-1.91-6.1-4.18-9.45-5.56-6.04-2.49-7.82-6.79-7.63-13.02,.34-11.16,.1-22.33,.1-33.5Z"/><path class="d" d="M116.5,70.16c-.47-3.77,.16-7.35-1.29-8.69-3.09-2.86-7.21-4.64-11.02-6.65-.56-.3-1.81,.46-2.63,.93-7.94,4.53-15.94,8.95-23.69,13.78-1.58,.98-2.85,3.47-3.07,5.4-.47,4.11,.29,8.38-.35,12.44-.3,1.89-2.4,4.47-4.16,4.93-3.1,.82-4.92-1.67-4.99-4.71-.15-5.99-.4-12.02,.2-17.96,.22-2.22,2.2-4.97,4.17-6.19,9.74-6.05,19.62-11.91,29.75-17.26,2.34-1.24,5.87-.23,8.86-.25,.15,0,.3,.13,.45,.21,17.44,9.14,18.71,11.52,16.77,31.55-.43,4.4-3.25,6.24-7.23,4.38-3.46-1.62-6.98-3.32-9.98-5.62-3.03-2.33-5.45-2.27-8.46-.23-3.02,2.05-6.26,3.77-9.45,5.55-2.73,1.52-5.46,1.93-7.34-1.25-1.76-2.97-.25-5.15,2.26-6.68,4.98-3.01,9.88-6.26,15.17-8.6,2.17-.96,5.39-.27,7.9,.47,2.46,.72,4.62,2.46,8.14,4.45Z"/><path class="d" d="M125.5,127.51c2.51,9.73-2.58,14.7-10.74,18.61-7.61,3.65-14.7,8.4-22.02,12.66-.86,.5-1.77,.92-2.63,1.41-2.89,1.63-6.03,1.67-7.03-1.63-.54-1.78,.95-5.19,2.59-6.4,4.54-3.31,9.64-5.85,14.53-8.68,3.02-1.75,5.9-3.86,9.11-5.13,5.92-2.33,7.15-6.46,7.01-12.43-.11-4.5-1.74-6.59-5.3-8.87-4.82-3.1-8.9-4.23-13.71-.21-2.25,1.89-5.01,3.55-7.81,4.26-1.9,.48-4.27-.87-6.43-1.4,.57-2.15,.43-5.32,1.83-6.28,5.18-3.57,10.71-6.72,16.43-9.36,1.83-.85,4.85-.11,6.94,.79,3.63,1.58,6.85,4.12,10.45,5.78,4.99,2.31,7.56,5.71,6.82,11.37-.23,1.8-.04,3.66-.04,5.49Z"/><path class="d" d="M65.24,117.79c-2.54-10.05,2.61-15.33,11.1-19.42,8.04-3.88,15.56-8.84,23.32-13.31,2.91-1.68,6.06-2.87,8.21,.76,2.02,3.42-.36,5.57-3.14,7.18-8.31,4.83-16.56,9.77-24.99,14.38-3.71,2.03-5.81,4.32-5.17,8.9,.48,3.42,.59,7.07-.11,10.41-.41,1.94-2.73,3.49-4.19,5.21-1.67-1.71-4.19-3.17-4.81-5.2-.83-2.74-.21-5.92-.21-8.91Z"/></g></g></g></svg>