<?xml version="1.0" encoding="UTF-8"?><svg xmlns="http://www.w3.org/2000/svg" viewBox="0 0 237.62 238.42"><defs><style>.d{fill:#692b8e;}.e{fill:#a658f4;}.f{fill:#471a9f;}</style></defs><g id="a"/><g id="b"><g id="c"><g><rect class="d" x="9.77" y="10.58" width="227.85" height="227.85" rx="8" ry="8"/><rect class="f" width="225.68" height="225.68" rx="8" ry="8"/><rect class="e" x="21.42" y="20.86" width="88.34" height="18.94" rx="8" ry="8"/><rect class="e" x="21.42" y="55.56" width="88.34" height="18.94" rx="8" ry="8"/><rect class="e" x="21.42" y="90.31" width="88.34" height="18.94" rx="8" ry="8"/><rect class="e" x="-13.3" y="152.34" width="88.34" height="18.94" rx="8" ry="8" transform="translate(-130.95 192.68) rotate(-90)"/><rect class="e" x="21.4" y="152.34" width="88.34" height="18.94" rx="8" ry="8" transform="translate(-96.25 227.38) rotate(-90)"/><rect class="e" x="56.15" y="152.34" width="88.34" height="18.94" rx="8" ry="8" transform="translate(-61.5 262.14) rotate(-90)"/><rect class="e" x="118.32" y="186.78" width="88.34" height="18.94" rx="8" ry="8" transform="translate(324.98 392.51) rotate(180)"/><rect class="e" x="118.32" y="152.08" width="88.34" height="18.94" rx="8" ry="8" transform="translate(324.98 323.11) rotate(-180)"/><rect class="e" x="118.32" y="117.33" width="88.34" height="18.94" rx="8" ry="8" transform="translate(324.98 253.61) rotate(180)"/><rect class="e" x="153.05" y="55.29" width="88.34" height="18.94" rx="8" ry="8" transform="translate(261.98 -132.45) rotate(90)"/><rect class="e" x="118.35" y="55.29" width="88.34" height="18.94" rx="8" ry="8" transform="translate(227.28 -97.75) rotate(90)"/><rect class="e" x="83.6" y="55.29" width="88.34" height="18.94" rx="8" ry="8" transform="translate(192.53 -63) rotate(90)"/></g></g></g></svg>